<svg xmlns="http://www.w3.org/2000/svg" width="600" height="600" viewBox="0 0 600 600">
  <g fill="#ffffff">
    <circle cx="42" cy="28" r="0.8" opacity=".8"/>
    <circle cx="120" cy="95" r="0.6" opacity=".55"/>
    <circle cx="200" cy="60" r="1.0" opacity=".9"/>
    <circle cx="318" cy="34" r="0.6" opacity=".5"/>
    <circle cx="412" cy="78" r="0.8" opacity=".7"/>
    <circle cx="510" cy="46" r="1.2" opacity=".9"/>
    <circle cx="78" cy="180" r="0.7" opacity=".6"/>
    <circle cx="240" cy="160" r="0.5" opacity=".4"/>
    <circle cx="356" cy="200" r="0.9" opacity=".8"/>
    <circle cx="488" cy="170" r="0.7" opacity=".7"/>
    <circle cx="558" cy="230" r="0.6" opacity=".5"/>
    <circle cx="60" cy="290" r="0.8" opacity=".7"/>
    <circle cx="156" cy="270" r="0.5" opacity=".45"/>
    <circle cx="278" cy="320" r="1.0" opacity=".9"/>
    <circle cx="400" cy="288" r="0.6" opacity=".55"/>
    <circle cx="496" cy="334" r="0.8" opacity=".7"/>
    <circle cx="32" cy="412" r="0.7" opacity=".6"/>
    <circle cx="178" cy="390" r="0.9" opacity=".8"/>
    <circle cx="306" cy="448" r="0.6" opacity=".5"/>
    <circle cx="446" cy="404" r="0.5" opacity=".4"/>
    <circle cx="538" cy="468" r="0.8" opacity=".7"/>
    <circle cx="88" cy="528" r="0.6" opacity=".55"/>
    <circle cx="218" cy="556" r="1.0" opacity=".9"/>
    <circle cx="362" cy="514" r="0.7" opacity=".6"/>
    <circle cx="478" cy="582" r="0.8" opacity=".7"/>
  </g>
</svg>
